# MagicaVoxel @ Ephtracy

# material
mtllib buiding1.mtl
usemtl palette

# normals
vn -1 0 0
vn 1 0 0
vn 0 0 1
vn 0 0 -1
vn 0 -1 0
vn 0 1 0

# texcoords
vt 0.306641 0.5
vt 0.970703 0.5
vt 0.978516 0.5
vt 0.990234 0.5

# verts
v -20 0 20
v -20 0 -20
v -20 4 20
v -20 4 -20
v -19 38 19
v -19 38 -19
v -19 40 19
v -19 40 -19
v -18 4 18
v -18 4 -18
v -18 38 18
v -18 38 -18
v 17 0 3
v 17 0 -3
v 17 3 1
v 17 3 -1
v 17 4 3
v 17 4 1
v 17 4 -1
v 17 4 -3
v 17 8 3
v 17 8 -3
v 18 3 1
v 18 3 -1
v 18 4 18
v 18 4 3
v 18 4 1
v 18 4 -1
v 18 4 -3
v 18 4 -18
v 18 8 3
v 18 8 -3
v 18 38 18
v 18 38 -18
v 19 38 19
v 19 38 -19
v 19 40 19
v 19 40 -19
v 20 0 20
v 20 0 3
v 20 0 -3
v 20 0 -20
v 20 4 20
v 20 4 3
v 20 4 -3
v 20 4 -20
v -20 0 20
v -20 4 20
v 20 0 20
v 20 4 20
v -19 38 19
v -19 40 19
v 19 38 19
v 19 40 19
v -18 4 18
v -18 38 18
v 17 4 18
v 18 4 18
v 18 38 18
v 17 3 1
v 17 4 1
v 18 3 1
v 18 4 1
v 17 0 -3
v 17 4 -3
v 17 8 -3
v 18 3 -3
v 18 4 -3
v 18 8 -3
v 19 0 -3
v 19 3 -3
v 20 0 -3
v 20 4 -3
v 17 0 3
v 17 4 3
v 17 8 3
v 18 4 3
v 18 8 3
v 20 0 3
v 20 4 3
v 17 3 -1
v 17 4 -1
v 18 3 -1
v 18 4 -1
v -18 4 -18
v -18 38 -18
v 18 4 -18
v 18 38 -18
v -19 38 -19
v -19 40 -19
v 19 38 -19
v 19 40 -19
v -20 0 -20
v -20 4 -20
v 20 0 -20
v 20 4 -20
v -20 0 20
v 20 0 20
v -18 0 19
v 17 0 19
v 16 0 3
v 17 0 3
v 20 0 3
v 16 0 -3
v 17 0 -3
v 19 0 -3
v 20 0 -3
v -18 0 -18
v 19 0 -18
v -20 0 -20
v 20 0 -20
v 17 3 1
v 18 3 1
v 17 3 -1
v 18 3 -1
v 17 8 3
v 18 8 3
v 17 8 -3
v 18 8 -3
v -19 38 19
v 19 38 19
v -18 38 18
v 18 38 18
v -18 38 -18
v 18 38 -18
v -19 38 -19
v 19 38 -19
v -20 4 20
v 20 4 20
v -18 4 19
v 17 4 19
v -18 4 18
v 17 4 18
v 18 4 18
v 18 4 3
v 20 4 3
v 17 4 1
v 18 4 1
v 17 4 -1
v 18 4 -1
v 18 4 -3
v 20 4 -3
v -18 4 -18
v 18 4 -18
v -20 4 -20
v 20 4 -20
v -19 40 19
v 19 40 19
v -19 40 -19
v 19 40 -19

# faces
f 3/2/1 2/2/1 1/2/1
f 4/2/1 2/2/1 3/2/1
f 7/2/1 6/2/1 5/2/1
f 8/2/1 6/2/1 7/2/1
f 11/3/1 10/3/1 9/3/1
f 12/3/1 10/3/1 11/3/1
f 13/4/2 14/4/2 15/4/2
f 15/4/2 14/4/2 16/4/2
f 13/4/2 15/4/2 17/4/2
f 17/4/2 15/4/2 18/4/2
f 16/4/2 14/4/2 19/4/2
f 19/4/2 14/4/2 20/4/2
f 17/4/2 18/4/2 21/4/2
f 18/4/2 19/4/2 21/4/2
f 19/4/2 20/4/2 21/4/2
f 21/4/2 20/4/2 22/4/2
f 23/1/2 24/1/2 27/1/2
f 27/1/2 24/1/2 28/1/2
f 25/3/2 26/3/2 31/3/2
f 29/3/2 30/3/2 32/3/2
f 25/3/2 31/3/2 33/3/2
f 31/3/2 32/3/2 33/3/2
f 32/3/2 30/3/2 34/3/2
f 33/3/2 32/3/2 34/3/2
f 35/2/2 36/2/2 37/2/2
f 37/2/2 36/2/2 38/2/2
f 39/2/2 40/2/2 43/2/2
f 43/2/2 40/2/2 44/2/2
f 41/2/2 42/2/2 45/2/2
f 45/2/2 42/2/2 46/2/2
f 49/2/3 48/2/3 47/2/3
f 50/2/3 48/2/3 49/2/3
f 53/2/3 52/2/3 51/2/3
f 54/2/3 52/2/3 53/2/3
f 57/3/3 56/3/3 55/3/3
f 58/3/3 56/3/3 57/3/3
f 59/3/3 56/3/3 58/3/3
f 62/1/3 61/1/3 60/1/3
f 63/1/3 61/1/3 62/1/3
f 67/1/3 65/1/3 64/1/3
f 68/3/3 66/3/3 65/3/3
f 68/1/3 65/1/3 67/1/3
f 69/3/3 66/3/3 68/3/3
f 70/1/3 67/1/3 64/1/3
f 71/2/3 68/2/3 67/2/3
f 71/1/3 67/1/3 70/1/3
f 72/2/3 71/2/3 70/2/3
f 73/2/3 68/2/3 71/2/3
f 73/2/3 71/2/3 72/2/3
f 74/2/4 75/2/4 77/2/4
f 75/3/4 76/3/4 77/3/4
f 77/3/4 76/3/4 78/3/4
f 74/2/4 77/2/4 79/2/4
f 79/2/4 77/2/4 80/2/4
f 81/1/4 82/1/4 83/1/4
f 83/1/4 82/1/4 84/1/4
f 85/3/4 86/3/4 87/3/4
f 87/3/4 86/3/4 88/3/4
f 89/2/4 90/2/4 91/2/4
f 91/2/4 90/2/4 92/2/4
f 93/2/4 94/2/4 95/2/4
f 95/2/4 94/2/4 96/2/4
f 99/2/5 98/2/5 97/2/5
f 100/2/5 98/2/5 99/2/5
f 101/1/5 100/1/5 99/1/5
f 102/2/5 98/2/5 100/2/5
f 102/1/5 100/1/5 101/1/5
f 103/2/5 98/2/5 102/2/5
f 104/1/5 101/1/5 99/1/5
f 104/4/5 102/4/5 101/4/5
f 105/4/5 102/4/5 104/4/5
f 108/2/5 99/2/5 97/2/5
f 108/1/5 104/1/5 99/1/5
f 108/1/5 106/1/5 105/1/5
f 108/1/5 105/1/5 104/1/5
f 109/2/5 107/2/5 106/2/5
f 109/1/5 106/1/5 108/1/5
f 110/2/5 108/2/5 97/2/5
f 110/2/5 109/2/5 108/2/5
f 111/2/5 107/2/5 109/2/5
f 111/2/5 109/2/5 110/2/5
f 114/1/5 113/1/5 112/1/5
f 115/1/5 113/1/5 114/1/5
f 118/3/5 117/3/5 116/3/5
f 119/3/5 117/3/5 118/3/5
f 122/2/5 121/2/5 120/2/5
f 123/2/5 121/2/5 122/2/5
f 124/2/5 122/2/5 120/2/5
f 125/2/5 121/2/5 123/2/5
f 126/2/5 124/2/5 120/2/5
f 126/2/5 125/2/5 124/2/5
f 127/2/5 121/2/5 125/2/5
f 127/2/5 125/2/5 126/2/5
f 128/2/6 129/2/6 130/2/6
f 130/2/6 129/2/6 131/2/6
f 128/2/6 130/2/6 132/2/6
f 130/1/6 131/1/6 132/1/6
f 131/2/6 129/2/6 133/2/6
f 132/1/6 131/1/6 133/1/6
f 133/2/6 129/2/6 134/2/6
f 134/2/6 129/2/6 135/2/6
f 135/2/6 129/2/6 136/2/6
f 137/1/6 138/1/6 139/1/6
f 139/1/6 138/1/6 140/1/6
f 128/2/6 132/2/6 143/2/6
f 141/2/6 142/2/6 144/2/6
f 128/2/6 143/2/6 145/2/6
f 143/2/6 144/2/6 145/2/6
f 144/2/6 142/2/6 146/2/6
f 145/2/6 144/2/6 146/2/6
f 147/2/6 148/2/6 149/2/6
f 149/2/6 148/2/6 150/2/6
