# MagicaVoxel @ Ephtracy

# material
mtllib Building2.mtl
usemtl palette

# normals
vn -1 0 0
vn 1 0 0
vn 0 0 1
vn 0 0 -1
vn 0 -1 0
vn 0 1 0

# texcoords
vt 0.0917969 0.5
vt 0.177734 0.5
vt 0.310547 0.5
vt 0.958984 0.5
vt 0.970703 0.5
vt 0.978516 0.5

# verts
v -20 0 10
v -20 0 -10
v -20 1 10
v -20 1 -10
v -20 16 10
v -20 16 -10
v -20 20 10
v -20 20 -10
v -19 1 9
v -19 1 -9
v -19 16 9
v -19 16 -9
v -7 4 -8
v -7 4 -9
v -7 10 -8
v -7 10 -9
v 1 4 -8
v 1 4 -9
v 1 6 -8
v 1 6 -9
v 3 1 -8
v 3 1 -9
v 3 9 -8
v 3 9 -9
v 11 17 7
v 11 17 1
v 11 19 7
v 11 19 1
v 18 19 8
v 18 19 -8
v 18 20 8
v 18 20 -8
v 19 17 9
v 19 17 -7
v 19 17 -9
v 19 19 9
v 19 19 -9
v -19 17 9
v -19 17 -7
v -19 17 -9
v -19 19 9
v -19 19 -9
v -18 19 8
v -18 19 -8
v -18 20 8
v -18 20 -8
v -13 4 -8
v -13 4 -9
v -13 10 -8
v -13 10 -9
v -3 1 -8
v -3 1 -9
v -3 9 -8
v -3 9 -9
v 2 4 -8
v 2 4 -9
v 2 6 -8
v 2 6 -9
v 15 17 7
v 15 17 1
v 15 19 7
v 15 19 1
v 17 4 6
v 17 4 -6
v 17 13 6
v 17 13 -6
v 18 3 7
v 18 3 -7
v 18 4 6
v 18 4 -6
v 18 13 6
v 18 13 -6
v 18 14 7
v 18 14 -7
v 19 1 9
v 19 1 -9
v 19 3 7
v 19 3 -7
v 19 14 7
v 19 14 -7
v 19 16 9
v 19 16 -9
v 20 0 10
v 20 0 -10
v 20 1 10
v 20 1 -10
v 20 16 10
v 20 16 -10
v 20 20 10
v 20 20 -10
v -20 0 10
v -20 1 10
v -20 16 10
v -20 20 10
v 20 0 10
v 20 1 10
v 20 16 10
v 20 20 10
v -19 1 9
v -19 16 9
v 19 1 9
v 19 16 9
v 11 17 7
v 11 19 7
v 15 17 7
v 15 19 7
v 17 4 -6
v 17 13 -6
v 18 4 -6
v 18 13 -6
v 18 3 -7
v 18 14 -7
v 19 3 -7
v 19 14 -7
v -18 19 -8
v -18 20 -8
v 18 19 -8
v 18 20 -8
v -19 17 -9
v -19 19 -9
v 19 17 -9
v 19 19 -9
v -19 17 9
v -19 19 9
v 19 17 9
v 19 19 9
v -18 19 8
v -18 20 8
v 18 19 8
v 18 20 8
v 18 3 7
v 18 14 7
v 19 3 7
v 19 14 7
v 17 4 6
v 17 13 6
v 18 4 6
v 18 13 6
v 11 17 1
v 11 19 1
v 15 17 1
v 15 19 1
v -13 4 -8
v -13 10 -8
v -7 4 -8
v -7 10 -8
v -3 1 -8
v -3 9 -8
v 1 4 -8
v 1 6 -8
v 2 4 -8
v 2 6 -8
v 3 1 -8
v 3 9 -8
v -19 1 -9
v -19 16 -9
v -13 4 -9
v -13 10 -9
v -7 4 -9
v -7 10 -9
v -3 1 -9
v -3 9 -9
v 1 4 -9
v 1 6 -9
v 2 4 -9
v 2 6 -9
v 3 1 -9
v 3 9 -9
v 19 1 -9
v 19 16 -9
v -20 0 -10
v -20 1 -10
v -20 16 -10
v -20 20 -10
v 20 0 -10
v 20 1 -10
v 20 16 -10
v 20 20 -10
v -20 0 10
v 20 0 10
v -19 0 9
v 19 0 9
v -19 0 -8
v 19 0 -8
v -20 0 -10
v 20 0 -10
v 1 4 -8
v 2 4 -8
v 1 4 -9
v 2 4 -9
v -3 9 -8
v 3 9 -8
v -3 9 -9
v 3 9 -9
v -13 10 -8
v -7 10 -8
v -13 10 -9
v -7 10 -9
v 17 13 6
v 18 13 6
v 17 13 -6
v 18 13 -6
v 18 14 7
v 19 14 7
v 18 14 -7
v 19 14 -7
v -20 16 10
v 20 16 10
v -19 16 9
v 19 16 9
v -19 16 -9
v 19 16 -9
v -20 16 -10
v 20 16 -10
v -19 19 9
v 19 19 9
v -18 19 8
v 18 19 8
v -18 19 -8
v 18 19 -8
v -19 19 -9
v 19 19 -9
v -20 1 10
v 20 1 10
v -19 1 9
v 19 1 9
v -3 1 -8
v 3 1 -8
v -19 1 -9
v -3 1 -9
v 3 1 -9
v 19 1 -9
v -20 1 -10
v 20 1 -10
v 18 3 7
v 19 3 7
v 18 3 -7
v 19 3 -7
v 17 4 6
v 18 4 6
v 17 4 -6
v 18 4 -6
v -13 4 -8
v -7 4 -8
v -13 4 -9
v -7 4 -9
v 1 6 -8
v 2 6 -8
v 1 6 -9
v 2 6 -9
v -19 17 9
v 19 17 9
v 11 17 7
v 15 17 7
v 11 17 1
v 15 17 1
v -19 17 -7
v 19 17 -7
v -19 17 -9
v 19 17 -9
v 11 19 7
v 15 19 7
v 11 19 1
v 15 19 1
v -20 20 10
v 20 20 10
v -18 20 8
v 18 20 8
v -18 20 -8
v 18 20 -8
v -20 20 -10
v 20 20 -10

# faces
f 3/6/1 2/6/1 1/6/1
f 4/6/1 2/6/1 3/6/1
f 7/1/1 6/1/1 5/1/1
f 8/1/1 6/1/1 7/1/1
f 11/2/1 10/2/1 9/2/1
f 12/2/1 10/2/1 11/2/1
f 15/2/1 14/2/1 13/2/1
f 16/2/1 14/2/1 15/2/1
f 19/2/1 18/2/1 17/2/1
f 20/2/1 18/2/1 19/2/1
f 23/2/1 22/2/1 21/2/1
f 24/2/1 22/2/1 23/2/1
f 27/6/1 26/6/1 25/6/1
f 28/6/1 26/6/1 27/6/1
f 31/1/1 30/1/1 29/1/1
f 32/1/1 30/1/1 31/1/1
f 36/1/1 34/1/1 33/1/1
f 36/1/1 35/1/1 34/1/1
f 37/1/1 35/1/1 36/1/1
f 38/1/2 39/1/2 41/1/2
f 39/1/2 40/1/2 41/1/2
f 41/1/2 40/1/2 42/1/2
f 43/1/2 44/1/2 45/1/2
f 45/1/2 44/1/2 46/1/2
f 47/2/2 48/2/2 49/2/2
f 49/2/2 48/2/2 50/2/2
f 51/2/2 52/2/2 53/2/2
f 53/2/2 52/2/2 54/2/2
f 55/2/2 56/2/2 57/2/2
f 57/2/2 56/2/2 58/2/2
f 59/6/2 60/6/2 61/6/2
f 61/6/2 60/6/2 62/6/2
f 63/3/2 64/3/2 65/3/2
f 65/3/2 64/3/2 66/3/2
f 67/1/2 68/1/2 69/1/2
f 69/1/2 68/1/2 70/1/2
f 67/1/2 69/1/2 71/1/2
f 70/1/2 68/1/2 72/1/2
f 67/1/2 71/1/2 73/1/2
f 71/1/2 72/1/2 73/1/2
f 72/1/2 68/1/2 74/1/2
f 73/1/2 72/1/2 74/1/2
f 75/2/2 76/2/2 77/2/2
f 77/2/2 76/2/2 78/2/2
f 75/2/2 77/2/2 79/2/2
f 78/2/2 76/2/2 80/2/2
f 75/2/2 79/2/2 81/2/2
f 79/2/2 80/2/2 81/2/2
f 80/2/2 76/2/2 82/2/2
f 81/2/2 80/2/2 82/2/2
f 83/6/2 84/6/2 85/6/2
f 85/6/2 84/6/2 86/6/2
f 87/1/2 88/1/2 89/1/2
f 89/1/2 88/1/2 90/1/2
f 95/6/3 92/6/3 91/6/3
f 96/6/3 92/6/3 95/6/3
f 97/1/3 94/1/3 93/1/3
f 98/1/3 94/1/3 97/1/3
f 101/2/3 100/2/3 99/2/3
f 102/2/3 100/2/3 101/2/3
f 105/6/3 104/6/3 103/6/3
f 106/6/3 104/6/3 105/6/3
f 109/1/3 108/1/3 107/1/3
f 110/1/3 108/1/3 109/1/3
f 113/2/3 112/2/3 111/2/3
f 114/2/3 112/2/3 113/2/3
f 117/1/3 116/1/3 115/1/3
f 118/1/3 116/1/3 117/1/3
f 121/1/3 120/1/3 119/1/3
f 122/1/3 120/1/3 121/1/3
f 123/1/4 124/1/4 125/1/4
f 125/1/4 124/1/4 126/1/4
f 127/1/4 128/1/4 129/1/4
f 129/1/4 128/1/4 130/1/4
f 131/2/4 132/2/4 133/2/4
f 133/2/4 132/2/4 134/2/4
f 135/1/4 136/1/4 137/1/4
f 137/1/4 136/1/4 138/1/4
f 139/6/4 140/6/4 141/6/4
f 141/6/4 140/6/4 142/6/4
f 143/3/4 144/3/4 145/3/4
f 145/3/4 144/3/4 146/3/4
f 147/1/4 148/1/4 149/1/4
f 149/1/4 148/1/4 150/1/4
f 147/1/4 149/1/4 151/1/4
f 150/1/4 148/1/4 152/1/4
f 147/1/4 151/1/4 153/1/4
f 151/1/4 152/1/4 153/1/4
f 152/1/4 148/1/4 154/1/4
f 153/1/4 152/1/4 154/1/4
f 155/2/4 156/2/4 157/2/4
f 157/2/4 156/2/4 158/2/4
f 155/2/4 157/2/4 159/2/4
f 158/2/4 156/2/4 160/2/4
f 155/2/4 159/2/4 161/2/4
f 159/2/4 160/2/4 161/2/4
f 161/2/4 160/2/4 162/2/4
f 163/2/4 164/2/4 165/2/4
f 165/2/4 164/2/4 166/2/4
f 162/2/4 160/2/4 168/2/4
f 167/2/4 168/2/4 169/2/4
f 160/2/4 156/2/4 170/2/4
f 169/2/4 168/2/4 170/2/4
f 168/2/4 160/2/4 170/2/4
f 171/6/4 172/6/4 175/6/4
f 175/6/4 172/6/4 176/6/4
f 173/1/4 174/1/4 177/1/4
f 177/1/4 174/1/4 178/1/4
f 181/6/5 180/6/5 179/6/5
f 182/6/5 180/6/5 181/6/5
f 183/6/5 181/6/5 179/6/5
f 183/5/5 182/5/5 181/5/5
f 184/6/5 180/6/5 182/6/5
f 184/5/5 182/5/5 183/5/5
f 185/6/5 183/6/5 179/6/5
f 185/6/5 184/6/5 183/6/5
f 186/6/5 180/6/5 184/6/5
f 186/6/5 184/6/5 185/6/5
f 189/2/5 188/2/5 187/2/5
f 190/2/5 188/2/5 189/2/5
f 193/2/5 192/2/5 191/2/5
f 194/2/5 192/2/5 193/2/5
f 197/2/5 196/2/5 195/2/5
f 198/2/5 196/2/5 197/2/5
f 201/1/5 200/1/5 199/1/5
f 202/1/5 200/1/5 201/1/5
f 205/2/5 204/2/5 203/2/5
f 206/2/5 204/2/5 205/2/5
f 209/1/5 208/1/5 207/1/5
f 210/1/5 208/1/5 209/1/5
f 211/1/5 209/1/5 207/1/5
f 212/1/5 208/1/5 210/1/5
f 213/1/5 211/1/5 207/1/5
f 213/1/5 212/1/5 211/1/5
f 214/1/5 208/1/5 212/1/5
f 214/1/5 212/1/5 213/1/5
f 217/1/5 216/1/5 215/1/5
f 218/1/5 216/1/5 217/1/5
f 219/1/5 217/1/5 215/1/5
f 220/1/5 216/1/5 218/1/5
f 221/1/5 219/1/5 215/1/5
f 221/1/5 220/1/5 219/1/5
f 222/1/5 216/1/5 220/1/5
f 222/1/5 220/1/5 221/1/5
f 223/6/6 224/6/6 225/6/6
f 225/6/6 224/6/6 226/6/6
f 223/6/6 225/6/6 229/6/6
f 227/6/6 228/6/6 230/6/6
f 230/6/6 228/6/6 231/6/6
f 226/6/6 224/6/6 232/6/6
f 223/6/6 229/6/6 233/6/6
f 231/6/6 232/6/6 233/6/6
f 230/6/6 231/6/6 233/6/6
f 229/6/6 230/6/6 233/6/6
f 232/6/6 224/6/6 234/6/6
f 233/6/6 232/6/6 234/6/6
f 235/2/6 236/2/6 237/2/6
f 237/2/6 236/2/6 238/2/6
f 239/1/6 240/1/6 241/1/6
f 241/1/6 240/1/6 242/1/6
f 243/2/6 244/2/6 245/2/6
f 245/2/6 244/2/6 246/2/6
f 247/2/6 248/2/6 249/2/6
f 249/2/6 248/2/6 250/2/6
f 251/2/6 252/2/6 253/2/6
f 253/2/6 252/2/6 254/2/6
f 251/2/6 253/2/6 255/2/6
f 254/2/6 252/2/6 256/2/6
f 251/2/6 255/2/6 257/2/6
f 255/2/6 256/2/6 257/2/6
f 256/2/6 252/2/6 258/2/6
f 257/2/6 256/2/6 258/2/6
f 257/4/6 258/4/6 259/4/6
f 259/4/6 258/4/6 260/4/6
f 261/6/6 262/6/6 263/6/6
f 263/6/6 262/6/6 264/6/6
f 265/1/6 266/1/6 267/1/6
f 267/1/6 266/1/6 268/1/6
f 265/1/6 267/1/6 269/1/6
f 268/1/6 266/1/6 270/1/6
f 265/1/6 269/1/6 271/1/6
f 269/1/6 270/1/6 271/1/6
f 270/1/6 266/1/6 272/1/6
f 271/1/6 270/1/6 272/1/6
